<svg width="19" height="16" viewBox="0 0 19 16" fill="currentColor" xmlns="http://www.w3.org/2000/svg">
<path d="M3.28 15.06C2.7 15.06 2.16 14.92 1.66 14.64C1.16 14.34 0.91 13.85 0.91 13.17C0.91 12.23 1.24 11.11 1.9 9.81C2.58 8.51 3.35 7.16 4.21 5.76C6.55 1.96 8.21 0.0599992 9.19 0.0599992C9.39 0.0599992 9.59 0.139999 9.79 0.3C10.01 0.44 10.13 0.599999 10.15 0.779999L8.05 3.6C7.23 4.7 6.49 5.72 5.83 6.66C5.17 7.58 4.6 8.41 4.12 9.15C3.88 9.53 3.61 9.96 3.31 10.44C3.01 10.92 2.74 11.42 2.5 11.94C2.28 12.44 2.17 12.95 2.17 13.47C2.17 13.71 2.24 13.93 2.38 14.13C2.52 14.31 2.77 14.4 3.13 14.4C3.77 14.4 4.61 14.06 5.65 13.38C6.69 12.68 7.72 11.72 8.74 10.5C8.84 10.38 8.95 10.27 9.07 10.17C9.19 10.07 9.29 10.02 9.37 10.02C9.47 10.02 9.52 10.08 9.52 10.2C9.52 10.26 9.45 10.38 9.31 10.56C9.19 10.72 9.09 10.85 9.01 10.95L8.29 11.76C7.89 12.2 7.41 12.68 6.85 13.2C6.31 13.72 5.73 14.16 5.11 14.52C4.51 14.88 3.9 15.06 3.28 15.06ZM10.5749 15.39C9.93492 15.39 9.35492 15.19 8.83492 14.79C8.31492 14.37 8.05492 13.82 8.05492 13.14C8.05492 11.72 8.92492 10.1 10.6649 8.28C12.4449 6.44 14.0349 5.52 15.4349 5.52C15.9149 5.52 16.2949 5.65 16.5749 5.91C16.8549 6.15 16.9949 6.45 16.9949 6.81C16.9949 7.31 16.8749 7.77 16.6349 8.19C16.3549 8.71 15.9549 8.97 15.4349 8.97C14.9149 8.97 14.6549 8.81 14.6549 8.49C14.6549 8.27 14.7849 7.94 15.0449 7.5C15.3249 7.04 15.4649 6.8 15.4649 6.78C15.4649 6.74 15.4349 6.72 15.3749 6.72C14.8149 6.78 14.0349 7.19 13.0349 7.95C12.5949 8.29 12.2049 8.61 11.8649 8.91C11.5449 9.21 11.2849 9.5 11.0849 9.78L9.91492 11.49C9.79492 11.67 9.66492 11.98 9.52492 12.42C9.40492 12.86 9.34492 13.19 9.34492 13.41C9.34492 13.81 9.47492 14.14 9.73492 14.4C10.0149 14.66 10.3649 14.79 10.7849 14.79C11.7849 14.79 13.1049 14.14 14.7449 12.84C16.0649 11.8 17.1249 10.75 17.9249 9.69C18.0249 9.57 18.1449 9.51 18.2849 9.51C18.4249 9.51 18.4949 9.55 18.4949 9.63C18.4949 9.69 18.4449 9.79 18.3449 9.93C17.2449 11.39 15.9549 12.65 14.4749 13.71C12.8949 14.83 11.5949 15.39 10.5749 15.39Z" fill="currentColor"/>
</svg>
