<svg viewBox="0 0 512 512" xmlns="http://www.w3.org/2000/svg">
    <g>
        <path d="m255.487 348.511-38.054 21.97-15.574 124.592c-.536 4.286.794 8.596 3.653 11.834s6.97 5.093 11.289 5.093h75.578c4.32 0 8.43-1.855 11.289-5.093s4.189-7.548 3.653-11.834l-21.591-172.724c-8.206 10.444-18.406 19.327-30.243 26.162z"></path>
        <path d="m270.097 158.141v-143.082c0-5.219-2.702-10.066-7.142-12.81-4.44-2.743-9.982-2.994-14.651-.659l-27.05 13.525c-25.759 12.879-41.761 38.771-41.761 67.57v83.59c0 16.328 5.224 31.449 14.064 43.817l29.912-17.27c11.989-15.749 28.037-27.701 46.628-34.681z"></path>
        <path d="m236.976 268.498c-13.719-5.811-23.992-18.2-26.868-33.186l-145.939 84.259c-4.52 2.609-7.367 7.373-7.523 12.59-.157 5.217 2.399 10.143 6.755 13.018l25.238 16.664c12.671 8.366 27.115 12.574 41.598 12.574 12.988 0 26.008-3.386 37.799-10.194l72.391-41.795c14.14-8.164 24.624-20.249 30.914-34.088z"></path>
        <path d="m417.584 233.375-72.391-41.795c-17.475-10.09-37.835-12.769-57.325-7.547-3.598.964-7.085 2.18-10.446 3.625 13.427 7.871 22.47 22.446 22.47 39.103 0 13.661-6.087 25.919-15.68 34.232l146.636 84.66c2.327 1.344 4.927 2.018 7.529 2.018 2.452 0 4.906-.598 7.135-1.798 4.596-2.473 7.583-7.149 7.896-12.359l1.813-30.189c1.726-28.747-12.696-55.551-37.637-69.95z"></path>
        <circle cx="254.59" cy="226.761" r="15.184"></circle>
    </g>
    <style>
        path {
            fill: #000
        }

        @media (prefers-color-scheme:dark) {
            path {
                fill: #fff
            }
        }
    </style>
</svg>